    <svg
      xmlns="http://www.w3.org/2000/svg"
      xmlns:xlink="http://www.w3.org/1999/xlink"
      viewBox="0 0 1904 1000"
      width="1904"
      height="1000"
      preserveAspectRatio="xMidYMid slice"
      style="width: 100%; height: 100%; transform: translate3d(0px, 0px, 0px); content-visibility: visible;">

      <defs>
        <clipPath id="__lottie_element_1794"><rect width="1904" height="1000" x="0" y="0"></rect></clipPath>
        <clipPath id="__lottie_element_1850"><path d="M0,0 L1904,0 L1904,1000 L0,1000z"></path></clipPath>
        <clipPath id="__lottie_element_1872"><path d="M0,0 L1904,0 L1904,1000 L0,1000z"></path></clipPath>
        <clipPath id="__lottie_element_1894"><path d="M0,0 L1904,0 L1904,1000 L0,1000z"></path></clipPath>
      </defs>



      <g clip-path="url(#__lottie_element_1794)">

        <g clip-path="url(#__lottie_element_1894)" transform="matrix(1,0,0,1,0,0)" opacity="0.33" style="display: block;">

          <g transform="matrix(1,0,0,1,952,760)" opacity="1" style="display: block;">
            <g opacity="1" transform="matrix(1,0,0,1,0,0)">
              <path stroke-linecap="butt" stroke-linejoin="miter" fill-opacity="0" stroke-miterlimit="4" stroke-dasharray=" 2.105 2.105" stroke-dashoffset="0" stroke="rgb(211,220,227)" stroke-opacity="1" stroke-width="1.053" d=" M0,-190 C104.93399810791016,-190 190,-104.93399810791016 190,0 C190,104.93399810791016 104.93399810791016,190 0,190 C-104.93399810791016,190 -190,104.93399810791016 -190,0 C-190,-104.93399810791016 -104.93399810791016,-190 0,-190z"></path>
            </g>
          </g>

          <g transform="matrix(1,0,0,1,952,720)" opacity="1" style="display: block;">
            <g opacity="1" transform="matrix(1,0,0,1,0,0)">
              <path stroke-linecap="butt" stroke-linejoin="miter" fill-opacity="0" stroke-miterlimit="4" stroke-dasharray=" 2.105 2.105" stroke-dashoffset="0" stroke="rgb(211,220,227)" stroke-opacity="1" stroke-width="1.053" d=" M0,-230 C127.0250015258789,-230 230,-127.0250015258789 230,0 C230,127.0250015258789 127.0250015258789,230 0,230 C-127.0260009765625,230 -230,127.0250015258789 -230,0 C-230,-127.0260009765625 -127.0250015258789,-230 0,-230z"></path>
            </g>
          </g>

          <g transform="matrix(1,0,0,1,951.5,680)" opacity="1" style="display: block;">
            <g opacity="1" transform="matrix(1,0,0,1,0,0)">
              <path stroke-linecap="butt" stroke-linejoin="miter" fill-opacity="0" stroke-miterlimit="4" stroke-dasharray=" 2.105 2.105" stroke-dashoffset="0" stroke="rgb(211,220,227)" stroke-opacity="1" stroke-width="1.053" d=" M0,-270 C149.39300537109375,-270 270.5,-149.11700439453125 270.5,0 C270.5,149.11700439453125 149.39300537109375,270 0,270 C-149.39300537109375,270 -270.5,149.11700439453125 -270.5,0 C-270.5,-149.11700439453125 -149.39300537109375,-270 0,-270z"></path>
            </g>
          </g>

          <g transform="matrix(1,0,0,1,952,634.2100219726562)" opacity="1" style="display: block;">
            <g opacity="1" transform="matrix(1,0,0,1,0,0)">
              <path stroke-linecap="butt" stroke-linejoin="miter" fill-opacity="0" stroke-miterlimit="4" stroke-dasharray=" 2.105 2.105" stroke-dashoffset="0" stroke="rgb(211,220,227)" stroke-opacity="1" stroke-width="1.053" d=" M0,-315.78900146484375 C174.406005859375,-315.78900146484375 315.78900146484375,-174.406005859375 315.78900146484375,0 C315.78900146484375,174.406005859375 174.406005859375,315.78900146484375 0,315.78900146484375 C-174.406005859375,315.78900146484375 -315.78900146484375,174.406005859375 -315.78900146484375,0 C-315.78900146484375,-174.406005859375 -174.406005859375,-315.78900146484375 0,-315.78900146484375z"></path>
            </g>
          </g>

          <g transform="matrix(1,0,0,1,952,592.10498046875)" opacity="1" style="display: block;">
            <g opacity="1" transform="matrix(1,0,0,1,0,0)">
              <path stroke-linecap="butt" stroke-linejoin="miter" fill-opacity="0" stroke-miterlimit="4" stroke-dasharray=" 2.105 2.105" stroke-dashoffset="0" stroke="rgb(211,220,227)" stroke-opacity="1" stroke-width="1.053" d=" M0,-357.8949890136719 C197.66000366210938,-357.8949890136719 357.8949890136719,-197.66000366210938 357.8949890136719,0 C357.8949890136719,197.66000366210938 197.66000366210938,357.8949890136719 0,357.8949890136719 C-197.66000366210938,357.8949890136719 -357.8949890136719,197.66000366210938 -357.8949890136719,0 C-357.8949890136719,-197.66000366210938 -197.66000366210938,-357.8949890136719 0,-357.8949890136719z"></path>
            </g>
          </g>

          <g transform="matrix(1,0,0,1,952,550)" opacity="1" style="display: block;">
            <g opacity="1" transform="matrix(1,0,0,1,0,0)">
              <path stroke-linecap="butt" stroke-linejoin="miter" fill-opacity="0" stroke-miterlimit="4" stroke-dasharray=" 2.105 2.105" stroke-dashoffset="0" stroke="rgb(211,220,227)" stroke-opacity="1" stroke-width="1.053" d=" M0,-400 C220.91400146484375,-400 400,-220.91400146484375 400,0 C400,220.91400146484375 220.91400146484375,400 0,400 C-220.91400146484375,400 -400,220.91400146484375 -400,0 C-400,-220.91400146484375 -220.91400146484375,-400 0,-400z"></path>
            </g>
          </g>

        </g>


        <g clip-path="url(#__lottie_element_1872)" transform="matrix(1,0,0,1,0,0)" opacity="0.33" style="display: block;">

          <g transform="matrix(1,0,0,1,1474,230)" opacity="1" style="display: block;">
            <g opacity="1" transform="matrix(1,0,0,1,0,0)">
              <path stroke-linecap="butt" stroke-linejoin="miter" fill-opacity="0" stroke-miterlimit="4" stroke-dasharray=" 2 2" stroke-dashoffset="0" stroke="rgb(211,220,227)" stroke-opacity="1" stroke-width="1" d=" M0,180 C99.41100311279297,180 180,99.41100311279297 180,0 C180,-99.41100311279297 99.41100311279297,-180 0,-180 C-99.41100311279297,-180 -180,-99.41100311279297 -180,0 C-180,99.41100311279297 -99.41100311279297,180 0,180z"></path>
            </g>
          </g>

          <g transform="matrix(1,0,0,1,1474,270)" opacity="1" style="display: block;">
            <g opacity="1" transform="matrix(1,0,0,1,0,0)">
              <path stroke-linecap="butt" stroke-linejoin="miter" fill-opacity="0" stroke-miterlimit="4" stroke-dasharray=" 2 2" stroke-dashoffset="0" stroke="rgb(211,220,227)" stroke-opacity="1" stroke-width="1" d=" M0,220 C121.50299835205078,220 220,121.50299835205078 220,0 C220,-121.50299835205078 121.50299835205078,-220 0,-220 C-121.50299835205078,-220 -220,-121.50299835205078 -220,0 C-220,121.50299835205078 -121.50299835205078,220 0,220z"></path>
            </g>
          </g>

          <g transform="matrix(1,0,0,1,1474,310)" opacity="1" style="display: block;">
            <g opacity="1" transform="matrix(1,0,0,1,0,0)">
              <path stroke-linecap="butt" stroke-linejoin="miter" fill-opacity="0" stroke-miterlimit="4" stroke-dasharray=" 2 2" stroke-dashoffset="0" stroke="rgb(211,220,227)" stroke-opacity="1" stroke-width="1" d=" M0,260 C143.593994140625,260 260,143.593994140625 260,0 C260,-143.593994140625 143.593994140625,-260 0,-260 C-143.593994140625,-260 -260,-143.593994140625 -260,0 C-260,143.593994140625 -143.593994140625,260 0,260z"></path>
            </g>
          </g>

          <g transform="matrix(1,0,0,1,1474,350)" opacity="1" style="display: block;">
            <g opacity="1" transform="matrix(1,0,0,1,0,0)">
              <path stroke-linecap="butt" stroke-linejoin="miter" fill-opacity="0" stroke-miterlimit="4" stroke-dasharray=" 2 2" stroke-dashoffset="0" stroke="rgb(211,220,227)" stroke-opacity="1" stroke-width="1" d=" M0,300 C165.68499755859375,300 300,165.68499755859375 300,0 C300,-165.68499755859375 165.68499755859375,-300 0,-300 C-165.68499755859375,-300 -300,-165.68499755859375 -300,0 C-300,165.68499755859375 -165.68499755859375,300 0,300z"></path>
            </g>
          </g>

          <g transform="matrix(1,0,0,1,1474,390)" opacity="1" style="display: block;">
            <g opacity="1" transform="matrix(1,0,0,1,0,0)">
              <path stroke-linecap="butt" stroke-linejoin="miter" fill-opacity="0" stroke-miterlimit="4" stroke-dasharray=" 2 2" stroke-dashoffset="0" stroke="rgb(211,220,227)" stroke-opacity="1" stroke-width="1" d=" M0,340 C187.77699279785156,340 340,187.77699279785156 340,0 C340,-187.77699279785156 187.77699279785156,-340 0,-340 C-187.77699279785156,-340 -340,-187.77699279785156 -340,0 C-340,187.77699279785156 -187.77699279785156,340 0,340z"></path>
            </g>
          </g>

          <g transform="matrix(1,0,0,1,1474,430)" opacity="1" style="display: block;">
            <g opacity="1" transform="matrix(1,0,0,1,0,0)">
              <path stroke-linecap="butt" stroke-linejoin="miter" fill-opacity="0" stroke-miterlimit="4" stroke-dasharray=" 2 2" stroke-dashoffset="0" stroke="rgb(211,220,227)" stroke-opacity="1" stroke-width="1" d=" M0,380 C209.8679962158203,380 380,209.8679962158203 380,0 C380,-209.8679962158203 209.8679962158203,-380 0,-380 C-209.8679962158203,-380 -380,-209.8679962158203 -380,0 C-380,209.8679962158203 -209.8679962158203,380 0,380z"></path>
            </g>
          </g>

        </g>


        <g clip-path="url(#__lottie_element_1850)" transform="matrix(1,0,0,1,0,0)" opacity="0.33" style="display: block;">

          <g transform="matrix(1,0,0,1,430,230)" opacity="1" style="display: block;">
            <g opacity="1" transform="matrix(1,0,0,1,0,0)">
              <path stroke-linecap="butt" stroke-linejoin="miter" fill-opacity="0" stroke-miterlimit="4" stroke-dasharray=" 2 2" stroke-dashoffset="0" stroke="rgb(211,220,227)" stroke-opacity="1" stroke-width="1" d=" M0,180 C99.41100311279297,180 180,99.41100311279297 180,0 C180,-99.41100311279297 99.41100311279297,-180 0,-180 C-99.41100311279297,-180 -180,-99.41100311279297 -180,0 C-180,99.41100311279297 -99.41100311279297,180 0,180z"></path>
            </g>
          </g>

          <g transform="matrix(1,0,0,1,430,270)" opacity="1" style="display: block;">
            <g opacity="1" transform="matrix(1,0,0,1,0,0)">
              <path stroke-linecap="butt" stroke-linejoin="miter" fill-opacity="0" stroke-miterlimit="4" stroke-dasharray=" 2 2" stroke-dashoffset="0" stroke="rgb(211,220,227)" stroke-opacity="1" stroke-width="1" d=" M0,220 C121.50299835205078,220 220,121.50299835205078 220,0 C220,-121.50299835205078 121.50299835205078,-220 0,-220 C-121.50299835205078,-220 -220,-121.50299835205078 -220,0 C-220,121.50299835205078 -121.50299835205078,220 0,220z"></path>
            </g>
          </g>

          <g transform="matrix(1,0,0,1,430,310)" opacity="1" style="display: block;">
            <g opacity="1" transform="matrix(1,0,0,1,0,0)">
              <path stroke-linecap="butt" stroke-linejoin="miter" fill-opacity="0" stroke-miterlimit="4" stroke-dasharray=" 2 2" stroke-dashoffset="0" stroke="rgb(211,220,227)" stroke-opacity="1" stroke-width="1" d=" M0,260 C143.593994140625,260 260,143.593994140625 260,0 C260,-143.593994140625 143.593994140625,-260 0,-260 C-143.593994140625,-260 -260,-143.593994140625 -260,0 C-260,143.593994140625 -143.593994140625,260 0,260z"></path>
            </g>
          </g>

          <g transform="matrix(1,0,0,1,430,350)" opacity="1" style="display: block;">
            <g opacity="1" transform="matrix(1,0,0,1,0,0)">
              <path stroke-linecap="butt" stroke-linejoin="miter" fill-opacity="0" stroke-miterlimit="4" stroke-dasharray=" 2 2" stroke-dashoffset="0" stroke="rgb(211,220,227)" stroke-opacity="1" stroke-width="1" d=" M0,300 C165.68499755859375,300 300,165.68499755859375 300,0 C300,-165.68499755859375 165.68499755859375,-300 0,-300 C-165.68499755859375,-300 -300,-165.68499755859375 -300,0 C-300,165.68499755859375 -165.68499755859375,300 0,300z"></path>
            </g>
          </g>

          <g transform="matrix(1,0,0,1,430,390)" opacity="1" style="display: block;">
            <g opacity="1" transform="matrix(1,0,0,1,0,0)">
              <path stroke-linecap="butt" stroke-linejoin="miter" fill-opacity="0" stroke-miterlimit="4" stroke-dasharray=" 2 2" stroke-dashoffset="0" stroke="rgb(211,220,227)" stroke-opacity="1" stroke-width="1" d=" M0,340 C187.77699279785156,340 340,187.77699279785156 340,0 C340,-187.77699279785156 187.77699279785156,-340 0,-340 C-187.77699279785156,-340 -340,-187.77699279785156 -340,0 C-340,187.77699279785156 -187.77699279785156,340 0,340z"></path>
            </g>
          </g>

          <g transform="matrix(1,0,0,1,430,430)" opacity="1" style="display: block;">
            <g opacity="1" transform="matrix(1,0,0,1,0,0)">
              <path stroke-linecap="butt" stroke-linejoin="miter" fill-opacity="0" stroke-miterlimit="4" stroke-dasharray=" 2 2" stroke-dashoffset="0" stroke="rgb(211,220,227)" stroke-opacity="1" stroke-width="1" d=" M0,380 C209.8679962158203,380 380,209.8679962158203 380,0 C380,-209.8679962158203 209.8679962158203,-380 0,-380 C-209.8679962158203,-380 -380,-209.8679962158203 -380,0 C-380,209.8679962158203 -209.8679962158203,380 0,380z"></path>
            </g>
          </g>

        </g>


        <g transform="matrix(1,0,0,1,1131.44921875,697.4127807617188)" opacity="1" style="display: block;">
          <g opacity="1" transform="matrix(1,0,0,1,0,0)">
            <path fill="rgb(11,65,252)" fill-opacity="1" d=" M-4.949999809265137,-4.949999809265137 C-4.949999809265137,-4.949999809265137 0,-10 0,-10 C0,-10 4.949999809265137,-4.949999809265137 4.949999809265137,-4.949999809265137 C4.949999809265137,-4.949999809265137 10,0 10,0 C10,0 4.949999809265137,4.949999809265137 4.949999809265137,4.949999809265137 C4.949999809265137,4.949999809265137 0,10 0,10 C0,10 -4.949999809265137,4.949999809265137 -4.949999809265137,4.949999809265137 C-4.949999809265137,4.949999809265137 -10,0 -10,0 C-10,0 -4.949999809265137,-4.949999809265137 -4.949999809265137,-4.949999809265137z"></path>
          </g>
        </g>

        <g transform="matrix(1,0,0,1,861.4443969726562,931.484375)" opacity="1" style="display: block;">
          <g opacity="1" transform="matrix(1,0,0,1,0,0)">
            <path fill="rgb(11,65,252)" fill-opacity="1" d=" M-4.949999809265137,-4.949999809265137 C-4.949999809265137,-4.949999809265137 0,-10 0,-10 C0,-10 4.949999809265137,-4.949999809265137 4.949999809265137,-4.949999809265137 C4.949999809265137,-4.949999809265137 10,0 10,0 C10,0 4.949999809265137,4.949999809265137 4.949999809265137,4.949999809265137 C4.949999809265137,4.949999809265137 0,10 0,10 C0,10 -4.949999809265137,4.949999809265137 -4.949999809265137,4.949999809265137 C-4.949999809265137,4.949999809265137 -10,0 -10,0 C-10,0 -4.949999809265137,-4.949999809265137 -4.949999809265137,-4.949999809265137z"></path>
          </g>
        </g>

        <g transform="matrix(1,0,0,1,734.9329223632812,841.130859375)" opacity="1" style="display: block;">
          <g opacity="1" transform="matrix(1,0,0,1,0,0)">
            <path fill="rgb(11,65,252)" fill-opacity="1" d=" M-4.949999809265137,-4.949999809265137 C-4.949999809265137,-4.949999809265137 0,-10 0,-10 C0,-10 4.949999809265137,-4.949999809265137 4.949999809265137,-4.949999809265137 C4.949999809265137,-4.949999809265137 10,0 10,0 C10,0 4.949999809265137,4.949999809265137 4.949999809265137,4.949999809265137 C4.949999809265137,4.949999809265137 0,10 0,10 C0,10 -4.949999809265137,4.949999809265137 -4.949999809265137,4.949999809265137 C-4.949999809265137,4.949999809265137 -10,0 -10,0 C-10,0 -4.949999809265137,-4.949999809265137 -4.949999809265137,-4.949999809265137z"></path>
          </g>
        </g>

        <g transform="matrix(1,0,0,1,821.4725952148438,346.3677673339844)" opacity="1" style="display: block;">
          <g opacity="1" transform="matrix(1,0,0,1,0,0)">
            <path fill="rgb(11,65,252)" fill-opacity="1" d=" M-4.949999809265137,-4.949999809265137 C-4.949999809265137,-4.949999809265137 0,-10 0,-10 C0,-10 4.949999809265137,-4.949999809265137 4.949999809265137,-4.949999809265137 C4.949999809265137,-4.949999809265137 10,0 10,0 C10,0 4.949999809265137,4.949999809265137 4.949999809265137,4.949999809265137 C4.949999809265137,4.949999809265137 0,10 0,10 C0,10 -4.949999809265137,4.949999809265137 -4.949999809265137,4.949999809265137 C-4.949999809265137,4.949999809265137 -10,0 -10,0 C-10,0 -4.949999809265137,-4.949999809265137 -4.949999809265137,-4.949999809265137z"></path>
          </g>
        </g>

        <g transform="matrix(1,0,0,1,1291.264404296875,477.7344055175781)" opacity="1" style="display: block;">
          <g opacity="1" transform="matrix(1,0,0,1,0,0)">
            <path fill="rgb(11,65,252)" fill-opacity="1" d=" M-4.949999809265137,-4.949999809265137 C-4.949999809265137,-4.949999809265137 0,-10 0,-10 C0,-10 4.949999809265137,-4.949999809265137 4.949999809265137,-4.949999809265137 C4.949999809265137,-4.949999809265137 10,0 10,0 C10,0 4.949999809265137,4.949999809265137 4.949999809265137,4.949999809265137 C4.949999809265137,4.949999809265137 0,10 0,10 C0,10 -4.949999809265137,4.949999809265137 -4.949999809265137,4.949999809265137 C-4.949999809265137,4.949999809265137 -10,0 -10,0 C-10,0 -4.949999809265137,-4.949999809265137 -4.949999809265137,-4.949999809265137z"></path>
          </g>
        </g>

        <g transform="matrix(1,0,0,1,1191.7181396484375,870.2348022460938)" opacity="1" style="display: block;">
          <g opacity="1" transform="matrix(1,0,0,1,0,0)">
            <path fill="rgb(11,65,252)" fill-opacity="1" d=" M-4.949999809265137,-4.949999809265137 C-4.949999809265137,-4.949999809265137 0,-10 0,-10 C0,-10 4.949999809265137,-4.949999809265137 4.949999809265137,-4.949999809265137 C4.949999809265137,-4.949999809265137 10,0 10,0 C10,0 4.949999809265137,4.949999809265137 4.949999809265137,4.949999809265137 C4.949999809265137,4.949999809265137 0,10 0,10 C0,10 -4.949999809265137,4.949999809265137 -4.949999809265137,4.949999809265137 C-4.949999809265137,4.949999809265137 -10,0 -10,0 C-10,0 -4.949999809265137,-4.949999809265137 -4.949999809265137,-4.949999809265137z"></path>
          </g>
        </g>

        <g transform="matrix(1,0,0,1,259.9954833984375,289.29315185546875)" opacity="1" style="display: block;">
          <g opacity="1" transform="matrix(1,0,0,1,0,0)">
            <path fill="rgb(11,65,252)" fill-opacity="1" d=" M-4.949999809265137,-4.949999809265137 C-4.949999809265137,-4.949999809265137 0,-10 0,-10 C0,-10 4.949999809265137,-4.949999809265137 4.949999809265137,-4.949999809265137 C4.949999809265137,-4.949999809265137 10,0 10,0 C10,0 4.949999809265137,4.949999809265137 4.949999809265137,4.949999809265137 C4.949999809265137,4.949999809265137 0,10 0,10 C0,10 -4.949999809265137,4.949999809265137 -4.949999809265137,4.949999809265137 C-4.949999809265137,4.949999809265137 -10,0 -10,0 C-10,0 -4.949999809265137,-4.949999809265137 -4.949999809265137,-4.949999809265137z"></path>
          </g>
        </g>

        <g transform="matrix(1,0,0,1,516.6212768554688,67.71172332763672)" opacity="1" style="display: block;">
          <g opacity="1" transform="matrix(1,0,0,1,0,0)">
            <path fill="rgb(11,65,252)" fill-opacity="1" d=" M-4.949999809265137,-4.949999809265137 C-4.949999809265137,-4.949999809265137 0,-10 0,-10 C0,-10 4.949999809265137,-4.949999809265137 4.949999809265137,-4.949999809265137 C4.949999809265137,-4.949999809265137 10,0 10,0 C10,0 4.949999809265137,4.949999809265137 4.949999809265137,4.949999809265137 C4.949999809265137,4.949999809265137 0,10 0,10 C0,10 -4.949999809265137,4.949999809265137 -4.949999809265137,4.949999809265137 C-4.949999809265137,4.949999809265137 -10,0 -10,0 C-10,0 -4.949999809265137,-4.949999809265137 -4.949999809265137,-4.949999809265137z"></path>
          </g>
        </g>

        <g transform="matrix(1,0,0,1,580.568603515625,98.01280975341797)" opacity="1" style="display: block;">
          <g opacity="1" transform="matrix(1,0,0,1,0,0)">
            <path fill="rgb(11,65,252)" fill-opacity="1" d=" M-4.949999809265137,-4.949999809265137 C-4.949999809265137,-4.949999809265137 0,-10 0,-10 C0,-10 4.949999809265137,-4.949999809265137 4.949999809265137,-4.949999809265137 C4.949999809265137,-4.949999809265137 10,0 10,0 C10,0 4.949999809265137,4.949999809265137 4.949999809265137,4.949999809265137 C4.949999809265137,4.949999809265137 0,10 0,10 C0,10 -4.949999809265137,4.949999809265137 -4.949999809265137,4.949999809265137 C-4.949999809265137,4.949999809265137 -10,0 -10,0 C-10,0 -4.949999809265137,-4.949999809265137 -4.949999809265137,-4.949999809265137z"></path>
          </g>
        </g>

        <g transform="matrix(1,0,0,1,305.9975891113281,76.74983215332031)" opacity="1" style="display: block;">
          <g opacity="1" transform="matrix(1,0,0,1,0,0)">
            <path fill="rgb(11,65,252)" fill-opacity="1" d=" M-4.949999809265137,-4.949999809265137 C-4.949999809265137,-4.949999809265137 0,-10 0,-10 C0,-10 4.949999809265137,-4.949999809265137 4.949999809265137,-4.949999809265137 C4.949999809265137,-4.949999809265137 10,0 10,0 C10,0 4.949999809265137,4.949999809265137 4.949999809265137,4.949999809265137 C4.949999809265137,4.949999809265137 0,10 0,10 C0,10 -4.949999809265137,4.949999809265137 -4.949999809265137,4.949999809265137 C-4.949999809265137,4.949999809265137 -10,0 -10,0 C-10,0 -4.949999809265137,-4.949999809265137 -4.949999809265137,-4.949999809265137z"></path>
          </g>
        </g>

        <g transform="matrix(1,0,0,1,107.69996643066406,498.554931640625)" opacity="1" style="display: block;">
          <g opacity="1" transform="matrix(1,0,0,1,0,0)">
            <path fill="rgb(11,65,252)" fill-opacity="1" d=" M-4.949999809265137,-4.949999809265137 C-4.949999809265137,-4.949999809265137 0,-10 0,-10 C0,-10 4.949999809265137,-4.949999809265137 4.949999809265137,-4.949999809265137 C4.949999809265137,-4.949999809265137 10,0 10,0 C10,0 4.949999809265137,4.949999809265137 4.949999809265137,4.949999809265137 C4.949999809265137,4.949999809265137 0,10 0,10 C0,10 -4.949999809265137,4.949999809265137 -4.949999809265137,4.949999809265137 C-4.949999809265137,4.949999809265137 -10,0 -10,0 C-10,0 -4.949999809265137,-4.949999809265137 -4.949999809265137,-4.949999809265137z"></path>
          </g>
        </g>

        <g transform="matrix(1,0,0,1,202.2635955810547,125.78020477294922)" opacity="1" style="display: block;">
          <g opacity="1" transform="matrix(1,0,0,1,0,0)">
            <path fill="rgb(11,65,252)" fill-opacity="1" d=" M-4.949999809265137,-4.949999809265137 C-4.949999809265137,-4.949999809265137 0,-10 0,-10 C0,-10 4.949999809265137,-4.949999809265137 4.949999809265137,-4.949999809265137 C4.949999809265137,-4.949999809265137 10,0 10,0 C10,0 4.949999809265137,4.949999809265137 4.949999809265137,4.949999809265137 C4.949999809265137,4.949999809265137 0,10 0,10 C0,10 -4.949999809265137,4.949999809265137 -4.949999809265137,4.949999809265137 C-4.949999809265137,4.949999809265137 -10,0 -10,0 C-10,0 -4.949999809265137,-4.949999809265137 -4.949999809265137,-4.949999809265137z"></path>
          </g>
        </g>

        <g transform="matrix(1,0,0,1,1303.9954833984375,289.29315185546875)" opacity="1" style="display: block;">
          <g opacity="1" transform="matrix(1,0,0,1,0,0)">
            <path fill="rgb(11,65,252)" fill-opacity="1" d=" M-4.949999809265137,-4.949999809265137 C-4.949999809265137,-4.949999809265137 0,-10 0,-10 C0,-10 4.949999809265137,-4.949999809265137 4.949999809265137,-4.949999809265137 C4.949999809265137,-4.949999809265137 10,0 10,0 C10,0 4.949999809265137,4.949999809265137 4.949999809265137,4.949999809265137 C4.949999809265137,4.949999809265137 0,10 0,10 C0,10 -4.949999809265137,4.949999809265137 -4.949999809265137,4.949999809265137 C-4.949999809265137,4.949999809265137 -10,0 -10,0 C-10,0 -4.949999809265137,-4.949999809265137 -4.949999809265137,-4.949999809265137z"></path>
          </g>
        </g>

        <g transform="matrix(1,0,0,1,1560.621337890625,67.71172332763672)" opacity="1" style="display: block;">
          <g opacity="1" transform="matrix(1,0,0,1,0,0)">
            <path fill="rgb(11,65,252)" fill-opacity="1" d=" M-4.949999809265137,-4.949999809265137 C-4.949999809265137,-4.949999809265137 0,-10 0,-10 C0,-10 4.949999809265137,-4.949999809265137 4.949999809265137,-4.949999809265137 C4.949999809265137,-4.949999809265137 10,0 10,0 C10,0 4.949999809265137,4.949999809265137 4.949999809265137,4.949999809265137 C4.949999809265137,4.949999809265137 0,10 0,10 C0,10 -4.949999809265137,4.949999809265137 -4.949999809265137,4.949999809265137 C-4.949999809265137,4.949999809265137 -10,0 -10,0 C-10,0 -4.949999809265137,-4.949999809265137 -4.949999809265137,-4.949999809265137z"></path>
          </g>
        </g>

        <g transform="matrix(1,0,0,1,1624.568603515625,98.01280975341797)" opacity="1" style="display: block;">
          <g opacity="1" transform="matrix(1,0,0,1,0,0)">
            <path fill="rgb(11,65,252)" fill-opacity="1" d=" M-4.949999809265137,-4.949999809265137 C-4.949999809265137,-4.949999809265137 0,-10 0,-10 C0,-10 4.949999809265137,-4.949999809265137 4.949999809265137,-4.949999809265137 C4.949999809265137,-4.949999809265137 10,0 10,0 C10,0 4.949999809265137,4.949999809265137 4.949999809265137,4.949999809265137 C4.949999809265137,4.949999809265137 0,10 0,10 C0,10 -4.949999809265137,4.949999809265137 -4.949999809265137,4.949999809265137 C-4.949999809265137,4.949999809265137 -10,0 -10,0 C-10,0 -4.949999809265137,-4.949999809265137 -4.949999809265137,-4.949999809265137z"></path>
          </g>
        </g>

        <g transform="matrix(1,0,0,1,1349.99755859375,76.74983215332031)" opacity="1" style="display: block;">
          <g opacity="1" transform="matrix(1,0,0,1,0,0)">
            <path fill="rgb(11,65,252)" fill-opacity="1" d=" M-4.949999809265137,-4.949999809265137 C-4.949999809265137,-4.949999809265137 0,-10 0,-10 C0,-10 4.949999809265137,-4.949999809265137 4.949999809265137,-4.949999809265137 C4.949999809265137,-4.949999809265137 10,0 10,0 C10,0 4.949999809265137,4.949999809265137 4.949999809265137,4.949999809265137 C4.949999809265137,4.949999809265137 0,10 0,10 C0,10 -4.949999809265137,4.949999809265137 -4.949999809265137,4.949999809265137 C-4.949999809265137,4.949999809265137 -10,0 -10,0 C-10,0 -4.949999809265137,-4.949999809265137 -4.949999809265137,-4.949999809265137z"></path>
          </g>
        </g>

        <g transform="matrix(1,0,0,1,1151.699951171875,498.554931640625)" opacity="1" style="display: block;">
          <g opacity="1" transform="matrix(1,0,0,1,0,0)">
            <path fill="rgb(11,65,252)" fill-opacity="1" d=" M-4.949999809265137,-4.949999809265137 C-4.949999809265137,-4.949999809265137 0,-10 0,-10 C0,-10 4.949999809265137,-4.949999809265137 4.949999809265137,-4.949999809265137 C4.949999809265137,-4.949999809265137 10,0 10,0 C10,0 4.949999809265137,4.949999809265137 4.949999809265137,4.949999809265137 C4.949999809265137,4.949999809265137 0,10 0,10 C0,10 -4.949999809265137,4.949999809265137 -4.949999809265137,4.949999809265137 C-4.949999809265137,4.949999809265137 -10,0 -10,0 C-10,0 -4.949999809265137,-4.949999809265137 -4.949999809265137,-4.949999809265137z"></path>
          </g>
        </g>

        <g transform="matrix(1,0,0,1,1246.2635498046875,125.78020477294922)" opacity="1" style="display: block;">
          <g opacity="1" transform="matrix(1,0,0,1,0,0)">
            <path fill="rgb(11,65,252)" fill-opacity="1" d=" M-4.949999809265137,-4.949999809265137 C-4.949999809265137,-4.949999809265137 0,-10 0,-10 C0,-10 4.949999809265137,-4.949999809265137 4.949999809265137,-4.949999809265137 C4.949999809265137,-4.949999809265137 10,0 10,0 C10,0 4.949999809265137,4.949999809265137 4.949999809265137,4.949999809265137 C4.949999809265137,4.949999809265137 0,10 0,10 C0,10 -4.949999809265137,4.949999809265137 -4.949999809265137,4.949999809265137 C-4.949999809265137,4.949999809265137 -10,0 -10,0 C-10,0 -4.949999809265137,-4.949999809265137 -4.949999809265137,-4.949999809265137z"></path>
          </g>
        </g>


      </g>

    </svg>